<svg width="927" height="280" viewBox="0 0 927 280" fill="none" xmlns="http://www.w3.org/2000/svg">
<path d="M89.264 262.104C89.264 264.504 88.552 266.416 87.128 267.84C85.528 269.536 83.424 270.384 80.816 270.384C78.32 270.384 76.208 269.52 74.48 267.792C72.752 266.064 71.888 263.936 71.888 261.408C71.888 258.88 72.752 256.752 74.48 255.024C76.208 253.296 78.32 252.432 80.816 252.432C82.08 252.432 83.272 252.656 84.392 253.104C85.512 253.552 86.432 254.184 87.152 255L85.568 256.584C85.04 255.944 84.352 255.448 83.504 255.096C82.672 254.728 81.776 254.544 80.816 254.544C78.944 254.544 77.36 255.192 76.064 256.488C74.784 257.8 74.144 259.44 74.144 261.408C74.144 263.376 74.784 265.016 76.064 266.328C77.36 267.624 78.944 268.272 80.816 268.272C82.528 268.272 83.952 267.792 85.088 266.832C86.224 265.872 86.88 264.552 87.056 262.872H80.816V260.808H89.144C89.224 261.256 89.264 261.688 89.264 262.104ZM89.5736 264.12C89.5736 262.312 90.1416 260.816 91.2776 259.632C92.4296 258.448 93.8776 257.856 95.6216 257.856C97.3656 257.856 98.8056 258.448 99.9416 259.632C101.094 260.816 101.67 262.312 101.67 264.12C101.67 265.944 101.094 267.44 99.9416 268.608C98.8056 269.792 97.3656 270.384 95.6216 270.384C93.8776 270.384 92.4296 269.792 91.2776 268.608C90.1416 267.424 89.5736 265.928 89.5736 264.12ZM91.7816 264.12C91.7816 265.384 92.1496 266.408 92.8856 267.192C93.6216 267.976 94.5336 268.368 95.6216 268.368C96.7096 268.368 97.6216 267.976 98.3576 267.192C99.0936 266.408 99.4616 265.384 99.4616 264.12C99.4616 262.872 99.0936 261.856 98.3576 261.072C97.6056 260.272 96.6936 259.872 95.6216 259.872C94.5496 259.872 93.6376 260.272 92.8856 261.072C92.1496 261.856 91.7816 262.872 91.7816 264.12ZM101.803 264.12C101.803 262.312 102.371 260.816 103.507 259.632C104.659 258.448 106.107 257.856 107.851 257.856C109.595 257.856 111.035 258.448 112.171 259.632C113.323 260.816 113.899 262.312 113.899 264.12C113.899 265.944 113.323 267.44 112.171 268.608C111.035 269.792 109.595 270.384 107.851 270.384C106.107 270.384 104.659 269.792 103.507 268.608C102.371 267.424 101.803 265.928 101.803 264.12ZM104.011 264.12C104.011 265.384 104.379 266.408 105.115 267.192C105.851 267.976 106.763 268.368 107.851 268.368C108.939 268.368 109.851 267.976 110.587 267.192C111.323 266.408 111.691 265.384 111.691 264.12C111.691 262.872 111.323 261.856 110.587 261.072C109.835 260.272 108.923 259.872 107.851 259.872C106.779 259.872 105.867 260.272 105.115 261.072C104.379 261.856 104.011 262.872 104.011 264.12ZM119.985 268.368C121.073 268.368 121.961 267.976 122.649 267.192C123.369 266.408 123.729 265.384 123.729 264.12C123.729 262.888 123.369 261.872 122.649 261.072C121.945 260.272 121.057 259.872 119.985 259.872C118.929 259.872 118.041 260.272 117.321 261.072C116.601 261.872 116.241 262.888 116.241 264.12C116.241 265.368 116.601 266.384 117.321 267.168C118.041 267.968 118.929 268.368 119.985 268.368ZM119.913 275.568C119.257 275.568 118.641 275.48 118.065 275.304C117.489 275.144 116.961 274.912 116.481 274.608C116.017 274.304 115.617 273.944 115.281 273.528C114.945 273.112 114.689 272.648 114.513 272.136L116.601 271.272C116.841 271.96 117.257 272.512 117.849 272.928C118.441 273.344 119.129 273.552 119.913 273.552C121.113 273.552 122.049 273.192 122.721 272.472C123.393 271.752 123.729 270.76 123.729 269.496V268.368H123.633C123.217 268.992 122.649 269.488 121.929 269.856C121.225 270.208 120.457 270.384 119.625 270.384C118.089 270.384 116.769 269.784 115.665 268.584C114.577 267.352 114.033 265.864 114.033 264.12C114.033 262.376 114.577 260.896 115.665 259.68C116.769 258.464 118.089 257.856 119.625 257.856C120.457 257.856 121.225 258.04 121.929 258.408C122.649 258.76 123.217 259.248 123.633 259.872H123.729V258.24H125.841V269.496C125.841 271.384 125.305 272.864 124.233 273.936C123.145 275.024 121.705 275.568 119.913 275.568ZM129.541 252.816V270H127.333V252.816H129.541ZM136.194 270.384C134.466 270.384 133.042 269.792 131.922 268.608C130.802 267.424 130.242 265.928 130.242 264.12C130.242 262.328 130.786 260.84 131.874 259.656C132.962 258.456 134.354 257.856 136.05 257.856C137.794 257.856 139.178 258.424 140.202 259.56C141.242 260.68 141.762 262.256 141.762 264.288L141.738 264.528H132.498C132.53 265.68 132.914 266.608 133.65 267.312C134.386 268.016 135.266 268.368 136.29 268.368C137.698 268.368 138.802 267.664 139.602 266.256L141.57 267.216C141.042 268.208 140.306 268.984 139.362 269.544C138.434 270.104 137.378 270.384 136.194 270.384ZM132.666 262.704H139.41C139.346 261.888 139.01 261.216 138.402 260.688C137.81 260.144 137.01 259.872 136.002 259.872C135.17 259.872 134.45 260.128 133.842 260.64C133.25 261.152 132.858 261.84 132.666 262.704ZM147.039 270V252.816H152.295C154.919 252.816 157.023 253.608 158.607 255.192C160.207 256.776 161.007 258.848 161.007 261.408C161.007 263.984 160.207 266.064 158.607 267.648C157.023 269.216 154.919 270 152.295 270H147.039ZM149.247 254.928V267.888H152.295C154.295 267.888 155.871 267.32 157.023 266.184C158.175 265.032 158.751 263.44 158.751 261.408C158.751 259.392 158.175 257.808 157.023 256.656C155.871 255.504 154.295 254.928 152.295 254.928H149.247ZM166.977 270.384C165.249 270.384 163.825 269.792 162.705 268.608C161.585 267.424 161.025 265.928 161.025 264.12C161.025 262.328 161.569 260.84 162.657 259.656C163.745 258.456 165.137 257.856 166.833 257.856C168.577 257.856 169.961 258.424 170.985 259.56C172.025 260.68 172.545 262.256 172.545 264.288L172.521 264.528H163.281C163.313 265.68 163.697 266.608 164.433 267.312C165.169 268.016 166.049 268.368 167.073 268.368C168.481 268.368 169.585 267.664 170.385 266.256L172.353 267.216C171.825 268.208 171.089 268.984 170.145 269.544C169.217 270.104 168.161 270.384 166.977 270.384ZM163.449 262.704H170.193C170.129 261.888 169.793 261.216 169.185 260.688C168.593 260.144 167.793 259.872 166.785 259.872C165.953 259.872 165.233 260.128 164.625 260.64C164.033 261.152 163.641 261.84 163.449 262.704ZM178.842 270H176.634L171.882 258.24H174.282L177.738 267.36H177.786L181.29 258.24H183.642L178.842 270ZM188.812 270.384C187.084 270.384 185.66 269.792 184.54 268.608C183.42 267.424 182.86 265.928 182.86 264.12C182.86 262.328 183.404 260.84 184.492 259.656C185.58 258.456 186.972 257.856 188.668 257.856C190.412 257.856 191.796 258.424 192.82 259.56C193.86 260.68 194.38 262.256 194.38 264.288L194.356 264.528H185.116C185.148 265.68 185.532 266.608 186.268 267.312C187.004 268.016 187.884 268.368 188.908 268.368C190.316 268.368 191.42 267.664 192.22 266.256L194.188 267.216C193.66 268.208 192.924 268.984 191.98 269.544C191.052 270.104 189.996 270.384 188.812 270.384ZM185.284 262.704H192.028C191.964 261.888 191.628 261.216 191.02 260.688C190.428 260.144 189.628 259.872 188.62 259.872C187.788 259.872 187.068 260.128 186.46 260.64C185.868 261.152 185.476 261.84 185.284 262.704ZM197.407 252.816V270H195.199V252.816H197.407ZM198.108 264.12C198.108 262.312 198.676 260.816 199.812 259.632C200.964 258.448 202.412 257.856 204.156 257.856C205.9 257.856 207.34 258.448 208.476 259.632C209.628 260.816 210.204 262.312 210.204 264.12C210.204 265.944 209.628 267.44 208.476 268.608C207.34 269.792 205.9 270.384 204.156 270.384C202.412 270.384 200.964 269.792 199.812 268.608C198.676 267.424 198.108 265.928 198.108 264.12ZM200.316 264.12C200.316 265.384 200.684 266.408 201.42 267.192C202.156 267.976 203.068 268.368 204.156 268.368C205.244 268.368 206.156 267.976 206.892 267.192C207.628 266.408 207.996 265.384 207.996 264.12C207.996 262.872 207.628 261.856 206.892 261.072C206.14 260.272 205.228 259.872 204.156 259.872C203.084 259.872 202.172 260.272 201.42 261.072C200.684 261.856 200.316 262.872 200.316 264.12ZM216.652 268.368C217.708 268.368 218.596 267.968 219.316 267.168C220.036 266.384 220.396 265.368 220.396 264.12C220.396 262.888 220.036 261.872 219.316 261.072C218.596 260.272 217.708 259.872 216.652 259.872C215.58 259.872 214.684 260.272 213.964 261.072C213.26 261.872 212.908 262.888 212.908 264.12C212.908 265.368 213.26 266.392 213.964 267.192C214.684 267.976 215.58 268.368 216.652 268.368ZM217.012 270.384C216.148 270.384 215.356 270.2 214.636 269.832C213.932 269.464 213.388 268.976 213.004 268.368H212.908L213.004 270V275.184H210.796V258.24H212.908V259.872H213.004C213.388 259.264 213.932 258.776 214.636 258.408C215.356 258.04 216.148 257.856 217.012 257.856C218.564 257.856 219.876 258.464 220.948 259.68C222.052 260.912 222.604 262.392 222.604 264.12C222.604 265.864 222.052 267.344 220.948 268.56C219.876 269.776 218.564 270.384 217.012 270.384ZM228.707 270.384C226.979 270.384 225.555 269.792 224.435 268.608C223.315 267.424 222.755 265.928 222.755 264.12C222.755 262.328 223.299 260.84 224.387 259.656C225.475 258.456 226.867 257.856 228.563 257.856C230.307 257.856 231.691 258.424 232.715 259.56C233.755 260.68 234.275 262.256 234.275 264.288L234.251 264.528H225.011C225.043 265.68 225.427 266.608 226.163 267.312C226.899 268.016 227.779 268.368 228.803 268.368C230.211 268.368 231.315 267.664 232.115 266.256L234.083 267.216C233.555 268.208 232.819 268.984 231.875 269.544C230.947 270.104 229.891 270.384 228.707 270.384ZM225.179 262.704H231.923C231.859 261.888 231.523 261.216 230.915 260.688C230.323 260.144 229.523 259.872 228.515 259.872C227.683 259.872 226.963 260.128 226.355 260.64C225.763 261.152 225.371 261.84 225.179 262.704ZM237.302 270H235.094V258.24H237.206V260.16H237.302C237.526 259.536 237.982 259.008 238.67 258.576C239.374 258.128 240.062 257.904 240.734 257.904C241.374 257.904 241.918 258 242.366 258.192L241.694 260.328C241.422 260.216 240.99 260.16 240.398 260.16C239.566 260.16 238.838 260.496 238.214 261.168C237.606 261.84 237.302 262.624 237.302 263.52V270ZM263.137 262.104C263.137 264.504 262.425 266.416 261.001 267.84C259.401 269.536 257.297 270.384 254.689 270.384C252.193 270.384 250.081 269.52 248.353 267.792C246.625 266.064 245.761 263.936 245.761 261.408C245.761 258.88 246.625 256.752 248.353 255.024C250.081 253.296 252.193 252.432 254.689 252.432C255.953 252.432 257.145 252.656 258.265 253.104C259.385 253.552 260.305 254.184 261.025 255L259.441 256.584C258.913 255.944 258.225 255.448 257.377 255.096C256.545 254.728 255.649 254.544 254.689 254.544C252.817 254.544 251.233 255.192 249.937 256.488C248.657 257.8 248.017 259.44 248.017 261.408C248.017 263.376 248.657 265.016 249.937 266.328C251.233 267.624 252.817 268.272 254.689 268.272C256.401 268.272 257.825 267.792 258.961 266.832C260.097 265.872 260.753 264.552 260.929 262.872H254.689V260.808H263.017C263.097 261.256 263.137 261.688 263.137 262.104ZM265.975 270H263.767V258.24H265.879V260.16H265.975C266.199 259.536 266.655 259.008 267.343 258.576C268.047 258.128 268.735 257.904 269.407 257.904C270.047 257.904 270.591 258 271.039 258.192L270.367 260.328C270.095 260.216 269.663 260.16 269.071 260.16C268.239 260.16 267.511 260.496 266.887 261.168C266.279 261.84 265.975 262.624 265.975 263.52V270ZM269.888 264.12C269.888 262.312 270.456 260.816 271.592 259.632C272.744 258.448 274.192 257.856 275.936 257.856C277.68 257.856 279.12 258.448 280.256 259.632C281.408 260.816 281.984 262.312 281.984 264.12C281.984 265.944 281.408 267.44 280.256 268.608C279.12 269.792 277.68 270.384 275.936 270.384C274.192 270.384 272.744 269.792 271.592 268.608C270.456 267.424 269.888 265.928 269.888 264.12ZM272.096 264.12C272.096 265.384 272.464 266.408 273.2 267.192C273.936 267.976 274.848 268.368 275.936 268.368C277.024 268.368 277.936 267.976 278.672 267.192C279.408 266.408 279.776 265.384 279.776 264.12C279.776 262.872 279.408 261.856 278.672 261.072C277.92 260.272 277.008 259.872 275.936 259.872C274.864 259.872 273.952 260.272 273.2 261.072C272.464 261.856 272.096 262.872 272.096 264.12ZM292.992 270H290.88V268.368H290.784C290.448 268.944 289.928 269.424 289.224 269.808C288.536 270.192 287.816 270.384 287.064 270.384C285.624 270.384 284.512 269.976 283.728 269.16C282.96 268.328 282.576 267.152 282.576 265.632V258.24H284.784V265.488C284.832 267.408 285.8 268.368 287.688 268.368C288.568 268.368 289.304 268.016 289.896 267.312C290.488 266.592 290.784 265.736 290.784 264.744V258.24H292.992V270ZM300.24 268.368C301.296 268.368 302.184 267.968 302.904 267.168C303.624 266.384 303.984 265.368 303.984 264.12C303.984 262.888 303.624 261.872 302.904 261.072C302.184 260.272 301.296 259.872 300.24 259.872C299.168 259.872 298.272 260.272 297.552 261.072C296.848 261.872 296.496 262.888 296.496 264.12C296.496 265.368 296.848 266.392 297.552 267.192C298.272 267.976 299.168 268.368 300.24 268.368ZM300.6 270.384C299.736 270.384 298.944 270.2 298.224 269.832C297.52 269.464 296.976 268.976 296.592 268.368H296.496L296.592 270V275.184H294.384V258.24H296.496V259.872H296.592C296.976 259.264 297.52 258.776 298.224 258.408C298.944 258.04 299.736 257.856 300.6 257.856C302.152 257.856 303.464 258.464 304.536 259.68C305.64 260.912 306.192 262.392 306.192 264.12C306.192 265.864 305.64 267.344 304.536 268.56C303.464 269.776 302.152 270.384 300.6 270.384ZM315.897 266.736C315.897 267.76 315.449 268.624 314.553 269.328C313.657 270.032 312.529 270.384 311.169 270.384C309.985 270.384 308.945 270.08 308.049 269.472C307.153 268.848 306.513 268.032 306.129 267.024L308.097 266.184C308.385 266.888 308.801 267.44 309.345 267.84C309.905 268.224 310.513 268.416 311.169 268.416C311.873 268.416 312.457 268.264 312.921 267.96C313.401 267.656 313.641 267.296 313.641 266.88C313.641 266.128 313.065 265.576 311.913 265.224L309.897 264.72C307.609 264.144 306.465 263.04 306.465 261.408C306.465 260.336 306.897 259.48 307.761 258.84C308.641 258.184 309.761 257.856 311.121 257.856C312.161 257.856 313.097 258.104 313.929 258.6C314.777 259.096 315.369 259.76 315.705 260.592L313.737 261.408C313.513 260.912 313.145 260.528 312.633 260.256C312.137 259.968 311.577 259.824 310.953 259.824C310.377 259.824 309.857 259.968 309.393 260.256C308.945 260.544 308.721 260.896 308.721 261.312C308.721 261.984 309.353 262.464 310.617 262.752L312.393 263.208C314.729 263.784 315.897 264.96 315.897 266.736Z" fill="#5F6368"/>
<path d="M330.864 270.384C329.584 270.384 328.392 270.152 327.288 269.688C326.2 269.224 325.256 268.592 324.456 267.792C323.656 266.976 323.024 266.024 322.56 264.936C322.112 263.832 321.888 262.656 321.888 261.408C321.888 260.16 322.112 258.992 322.56 257.904C323.024 256.8 323.656 255.848 324.456 255.048C325.256 254.232 326.2 253.592 327.288 253.128C328.392 252.664 329.584 252.432 330.864 252.432C332.144 252.432 333.328 252.664 334.416 253.128C335.52 253.592 336.472 254.232 337.272 255.048C338.072 255.848 338.696 256.8 339.144 257.904C339.608 258.992 339.84 260.16 339.84 261.408C339.84 262.656 339.608 263.832 339.144 264.936C338.696 266.024 338.072 266.976 337.272 267.792C336.472 268.592 335.52 269.224 334.416 269.688C333.328 270.152 332.144 270.384 330.864 270.384ZM330.864 267.312C331.664 267.312 332.408 267.168 333.096 266.88C333.8 266.592 334.408 266.192 334.92 265.68C335.448 265.168 335.856 264.552 336.144 263.832C336.448 263.096 336.6 262.288 336.6 261.408C336.6 260.528 336.448 259.728 336.144 259.008C335.856 258.272 335.448 257.648 334.92 257.136C334.408 256.624 333.8 256.224 333.096 255.936C332.408 255.648 331.664 255.504 330.864 255.504C330.064 255.504 329.312 255.648 328.608 255.936C327.92 256.224 327.312 256.624 326.784 257.136C326.272 257.648 325.864 258.272 325.56 259.008C325.272 259.728 325.128 260.528 325.128 261.408C325.128 262.288 325.272 263.096 325.56 263.832C325.864 264.552 326.272 265.168 326.784 265.68C327.312 266.192 327.92 266.592 328.608 266.88C329.312 267.168 330.064 267.312 330.864 267.312ZM343.713 259.776H343.905C344.273 259.184 344.769 258.72 345.393 258.384C346.017 258.032 346.729 257.856 347.529 257.856C348.265 257.856 348.913 257.976 349.473 258.216C350.033 258.456 350.489 258.8 350.841 259.248C351.209 259.68 351.481 260.208 351.657 260.832C351.849 261.44 351.945 262.12 351.945 262.872V270H348.801V263.256C348.801 262.408 348.609 261.784 348.225 261.384C347.857 260.968 347.313 260.76 346.593 260.76C346.161 260.76 345.777 260.856 345.441 261.048C345.121 261.224 344.841 261.472 344.601 261.792C344.377 262.096 344.201 262.464 344.073 262.896C343.961 263.312 343.905 263.76 343.905 264.24V270H340.761V258.24H343.713V259.776ZM372.355 267.24C371.507 268.264 370.507 269.048 369.355 269.592C368.203 270.12 366.915 270.384 365.491 270.384C364.211 270.384 363.019 270.152 361.915 269.688C360.827 269.224 359.883 268.592 359.083 267.792C358.283 266.992 357.651 266.048 357.187 264.96C356.723 263.856 356.491 262.672 356.491 261.408C356.491 260.144 356.723 258.968 357.187 257.88C357.651 256.776 358.283 255.824 359.083 255.024C359.883 254.224 360.827 253.592 361.915 253.128C363.019 252.664 364.211 252.432 365.491 252.432C366.867 252.432 368.075 252.672 369.115 253.152C370.171 253.632 371.107 254.328 371.923 255.24L369.643 257.448C369.131 256.856 368.539 256.384 367.867 256.032C367.211 255.68 366.427 255.504 365.515 255.504C364.715 255.504 363.963 255.648 363.259 255.936C362.555 256.208 361.939 256.6 361.411 257.112C360.899 257.624 360.491 258.248 360.187 258.984C359.883 259.704 359.731 260.512 359.731 261.408C359.731 262.304 359.883 263.12 360.187 263.856C360.491 264.576 360.899 265.192 361.411 265.704C361.939 266.216 362.555 266.616 363.259 266.904C363.963 267.176 364.715 267.312 365.515 267.312C366.475 267.312 367.323 267.12 368.059 266.736C368.811 266.336 369.475 265.776 370.051 265.056L372.355 267.24ZM380.151 268.752H379.959C379.591 269.2 379.143 269.584 378.615 269.904C378.103 270.224 377.439 270.384 376.623 270.384C376.015 270.384 375.439 270.28 374.895 270.072C374.367 269.88 373.903 269.608 373.503 269.256C373.103 268.904 372.791 268.48 372.567 267.984C372.343 267.488 372.231 266.944 372.231 266.352C372.231 265.744 372.351 265.2 372.591 264.72C372.831 264.224 373.167 263.8 373.599 263.448C374.031 263.096 374.535 262.832 375.111 262.656C375.703 262.464 376.343 262.368 377.031 262.368C377.799 262.368 378.431 262.432 378.927 262.56C379.423 262.672 379.831 262.792 380.151 262.92V262.56C380.151 261.936 379.903 261.424 379.407 261.024C378.911 260.608 378.295 260.4 377.559 260.4C376.471 260.4 375.551 260.856 374.799 261.768L372.519 260.208C373.767 258.64 375.471 257.856 377.631 257.856C379.455 257.856 380.847 258.288 381.807 259.152C382.767 260 383.247 261.264 383.247 262.944V270H380.151V268.752ZM380.151 265.224C379.783 265.048 379.399 264.912 378.999 264.816C378.615 264.704 378.191 264.648 377.727 264.648C376.975 264.648 376.391 264.816 375.975 265.152C375.575 265.472 375.375 265.872 375.375 266.352C375.375 266.832 375.567 267.216 375.951 267.504C376.351 267.792 376.807 267.936 377.319 267.936C377.735 267.936 378.119 267.864 378.471 267.72C378.823 267.56 379.119 267.36 379.359 267.12C379.615 266.864 379.807 266.576 379.935 266.256C380.079 265.92 380.151 265.576 380.151 265.224ZM384.547 258.24H387.499V259.776H387.691C388.059 259.2 388.555 258.736 389.179 258.384C389.819 258.032 390.523 257.856 391.291 257.856C392.187 257.856 392.939 258.064 393.547 258.48C394.155 258.896 394.587 259.408 394.843 260.016C395.211 259.424 395.731 258.92 396.403 258.504C397.075 258.072 397.891 257.856 398.851 257.856C399.571 257.856 400.195 257.976 400.723 258.216C401.251 258.44 401.683 258.76 402.019 259.176C402.371 259.592 402.635 260.096 402.811 260.688C402.987 261.264 403.075 261.896 403.075 262.584V270H399.931V263.16C399.931 261.56 399.275 260.76 397.963 260.76C397.547 260.76 397.179 260.856 396.859 261.048C396.539 261.224 396.267 261.472 396.043 261.792C395.835 262.096 395.667 262.464 395.539 262.896C395.427 263.328 395.371 263.792 395.371 264.288V270H392.227V263.16C392.227 261.56 391.539 260.76 390.163 260.76C389.763 260.76 389.411 260.856 389.107 261.048C388.803 261.224 388.547 261.472 388.339 261.792C388.131 262.096 387.971 262.464 387.859 262.896C387.747 263.328 387.691 263.792 387.691 264.288V270H384.547V258.24ZM404.368 258.24H407.32V259.656H407.512C407.8 259.16 408.248 258.736 408.856 258.384C409.464 258.032 410.216 257.856 411.112 257.856C411.864 257.856 412.576 258.016 413.248 258.336C413.936 258.64 414.536 259.072 415.048 259.632C415.576 260.176 415.992 260.832 416.296 261.6C416.6 262.368 416.752 263.208 416.752 264.12C416.752 265.032 416.6 265.872 416.296 266.64C415.992 267.408 415.576 268.072 415.048 268.632C414.536 269.176 413.936 269.608 413.248 269.928C412.576 270.232 411.864 270.384 411.112 270.384C410.216 270.384 409.464 270.208 408.856 269.856C408.248 269.504 407.8 269.08 407.512 268.584H407.32L407.512 270.264V275.184H404.368V258.24ZM410.464 267.48C410.88 267.48 411.272 267.4 411.64 267.24C412.024 267.08 412.36 266.856 412.648 266.568C412.936 266.28 413.168 265.928 413.344 265.512C413.52 265.096 413.608 264.632 413.608 264.12C413.608 263.608 413.52 263.144 413.344 262.728C413.168 262.312 412.936 261.96 412.648 261.672C412.36 261.384 412.024 261.16 411.64 261C411.272 260.84 410.88 260.76 410.464 260.76C410.048 260.76 409.648 260.84 409.264 261C408.896 261.144 408.568 261.36 408.28 261.648C407.992 261.936 407.76 262.288 407.584 262.704C407.408 263.12 407.32 263.592 407.32 264.12C407.32 264.648 407.408 265.12 407.584 265.536C407.76 265.952 407.992 266.304 408.28 266.592C408.568 266.88 408.896 267.104 409.264 267.264C409.648 267.408 410.048 267.48 410.464 267.48ZM425.58 268.464H425.388C425.02 269.056 424.524 269.528 423.9 269.88C423.276 270.216 422.564 270.384 421.764 270.384C420.276 270.384 419.164 269.928 418.428 269.016C417.708 268.104 417.348 266.888 417.348 265.368V258.24H420.492V264.984C420.492 265.832 420.676 266.464 421.044 266.88C421.428 267.28 421.98 267.48 422.7 267.48C423.132 267.48 423.508 267.392 423.828 267.216C424.164 267.024 424.444 266.776 424.668 266.472C424.908 266.152 425.084 265.784 425.196 265.368C425.324 264.936 425.388 264.48 425.388 264V258.24H428.532V270H425.58V268.464ZM434.564 270.384C433.796 270.384 433.108 270.288 432.5 270.096C431.908 269.904 431.388 269.656 430.94 269.352C430.508 269.032 430.14 268.672 429.836 268.272C429.532 267.856 429.3 267.44 429.14 267.024L431.948 265.824C432.22 266.432 432.58 266.888 433.028 267.192C433.492 267.48 434.004 267.624 434.564 267.624C435.14 267.624 435.596 267.52 435.932 267.312C436.268 267.104 436.436 266.856 436.436 266.568C436.436 266.248 436.292 265.992 436.004 265.8C435.732 265.592 435.252 265.408 434.564 265.248L432.908 264.888C432.54 264.808 432.156 264.68 431.756 264.504C431.372 264.328 431.02 264.104 430.7 263.832C430.38 263.56 430.116 263.232 429.908 262.848C429.7 262.464 429.596 262.016 429.596 261.504C429.596 260.928 429.716 260.416 429.956 259.968C430.212 259.52 430.556 259.144 430.988 258.84C431.42 258.52 431.924 258.28 432.5 258.12C433.092 257.944 433.724 257.856 434.396 257.856C435.516 257.856 436.516 258.08 437.396 258.528C438.276 258.96 438.924 259.656 439.34 260.616L436.628 261.72C436.404 261.256 436.076 260.92 435.644 260.712C435.212 260.504 434.78 260.4 434.348 260.4C433.9 260.4 433.508 260.496 433.172 260.688C432.836 260.864 432.668 261.096 432.668 261.384C432.668 261.656 432.804 261.872 433.076 262.032C433.364 262.192 433.748 262.336 434.228 262.464L436.028 262.896C437.228 263.184 438.116 263.648 438.692 264.288C439.284 264.912 439.58 265.656 439.58 266.52C439.58 267.032 439.46 267.52 439.22 267.984C438.98 268.448 438.636 268.864 438.188 269.232C437.756 269.584 437.228 269.864 436.604 270.072C435.996 270.28 435.316 270.384 434.564 270.384Z" fill="#4386F5"/>
<path d="M445.607 264.312C445.031 264.312 444.535 264.112 444.119 263.712C443.719 263.296 443.519 262.8 443.519 262.224C443.519 261.648 443.719 261.16 444.119 260.76C444.535 260.344 445.031 260.136 445.607 260.136C446.183 260.136 446.671 260.344 447.071 260.76C447.471 261.16 447.671 261.648 447.671 262.224C447.671 262.8 447.471 263.296 447.071 263.712C446.671 264.112 446.183 264.312 445.607 264.312ZM458.257 270.384C456.353 270.384 454.817 269.76 453.649 268.512C452.481 267.28 451.897 265.648 451.897 263.616V252.816H454.105V263.712C454.105 265.12 454.473 266.232 455.209 267.048C455.945 267.864 456.961 268.272 458.257 268.272C459.553 268.272 460.569 267.864 461.305 267.048C462.041 266.232 462.409 265.12 462.409 263.712V252.816H464.617V263.616C464.617 265.696 464.041 267.344 462.889 268.56C461.737 269.776 460.193 270.384 458.257 270.384ZM466.096 258.24H468.208V259.872H468.304C468.64 259.296 469.152 258.816 469.84 258.432C470.544 258.048 471.272 257.856 472.024 257.856C473.464 257.856 474.568 258.272 475.336 259.104C476.12 259.92 476.512 261.088 476.512 262.608V270H474.304V262.752C474.256 260.832 473.288 259.872 471.4 259.872C470.52 259.872 469.784 260.232 469.192 260.952C468.6 261.656 468.304 262.504 468.304 263.496V270H466.096V258.24ZM480.759 254.184C480.759 254.616 480.607 254.984 480.303 255.288C479.999 255.592 479.631 255.744 479.199 255.744C478.767 255.744 478.399 255.592 478.095 255.288C477.791 254.984 477.639 254.616 477.639 254.184C477.639 253.752 477.791 253.384 478.095 253.08C478.399 252.776 478.767 252.624 479.199 252.624C479.631 252.624 479.999 252.776 480.303 253.08C480.607 253.384 480.759 253.752 480.759 254.184ZM480.303 258.24V270H478.095V258.24H480.303ZM487.689 270H485.481L480.729 258.24H483.129L486.585 267.36H486.633L490.137 258.24H492.489L487.689 270ZM497.658 270.384C495.93 270.384 494.506 269.792 493.386 268.608C492.266 267.424 491.706 265.928 491.706 264.12C491.706 262.328 492.25 260.84 493.338 259.656C494.426 258.456 495.818 257.856 497.514 257.856C499.258 257.856 500.642 258.424 501.666 259.56C502.706 260.68 503.226 262.256 503.226 264.288L503.202 264.528H493.962C493.994 265.68 494.378 266.608 495.114 267.312C495.85 268.016 496.73 268.368 497.754 268.368C499.162 268.368 500.266 267.664 501.066 266.256L503.034 267.216C502.506 268.208 501.77 268.984 500.826 269.544C499.898 270.104 498.842 270.384 497.658 270.384ZM494.13 262.704H500.874C500.81 261.888 500.474 261.216 499.866 260.688C499.274 260.144 498.474 259.872 497.466 259.872C496.634 259.872 495.914 260.128 495.306 260.64C494.714 261.152 494.322 261.84 494.13 262.704ZM506.254 270H504.046V258.24H506.158V260.16H506.254C506.478 259.536 506.934 259.008 507.622 258.576C508.326 258.128 509.014 257.904 509.686 257.904C510.326 257.904 510.87 258 511.318 258.192L510.646 260.328C510.374 260.216 509.942 260.16 509.35 260.16C508.518 260.16 507.79 260.496 507.166 261.168C506.558 261.84 506.254 262.624 506.254 263.52V270ZM520.096 266.736C520.096 267.76 519.648 268.624 518.752 269.328C517.856 270.032 516.728 270.384 515.368 270.384C514.184 270.384 513.144 270.08 512.248 269.472C511.352 268.848 510.712 268.032 510.328 267.024L512.296 266.184C512.584 266.888 513 267.44 513.544 267.84C514.104 268.224 514.712 268.416 515.368 268.416C516.072 268.416 516.656 268.264 517.12 267.96C517.6 267.656 517.84 267.296 517.84 266.88C517.84 266.128 517.264 265.576 516.112 265.224L514.096 264.72C511.808 264.144 510.664 263.04 510.664 261.408C510.664 260.336 511.096 259.48 511.96 258.84C512.84 258.184 513.96 257.856 515.32 257.856C516.36 257.856 517.296 258.104 518.128 258.6C518.976 259.096 519.568 259.76 519.904 260.592L517.936 261.408C517.712 260.912 517.344 260.528 516.832 260.256C516.336 259.968 515.776 259.824 515.152 259.824C514.576 259.824 514.056 259.968 513.592 260.256C513.144 260.544 512.92 260.896 512.92 261.312C512.92 261.984 513.552 262.464 514.816 262.752L516.592 263.208C518.928 263.784 520.096 264.96 520.096 266.736ZM523.556 254.184C523.556 254.616 523.404 254.984 523.1 255.288C522.796 255.592 522.428 255.744 521.996 255.744C521.564 255.744 521.196 255.592 520.892 255.288C520.588 254.984 520.436 254.616 520.436 254.184C520.436 253.752 520.588 253.384 520.892 253.08C521.196 252.776 521.564 252.624 521.996 252.624C522.428 252.624 522.796 252.776 523.1 253.08C523.404 253.384 523.556 253.752 523.556 254.184ZM523.1 258.24V270H520.892V258.24H523.1ZM529.312 270.192C528.353 270.192 527.553 269.896 526.913 269.304C526.289 268.712 525.969 267.888 525.953 266.832V260.256H523.889V258.24H525.953V254.64H528.161V258.24H531.041V260.256H528.161V266.112C528.161 266.896 528.313 267.432 528.617 267.72C528.921 267.992 529.265 268.128 529.648 268.128C529.825 268.128 529.993 268.112 530.153 268.08C530.329 268.032 530.489 267.976 530.633 267.912L531.329 269.88C530.753 270.088 530.081 270.192 529.312 270.192ZM542.57 258.24L535.202 275.184H532.922L535.658 269.256L530.81 258.24H533.21L536.714 266.688H536.762L540.17 258.24H542.57ZM546.213 264.12C546.213 262.312 546.781 260.816 547.917 259.632C549.069 258.448 550.517 257.856 552.261 257.856C554.005 257.856 555.445 258.448 556.581 259.632C557.733 260.816 558.309 262.312 558.309 264.12C558.309 265.944 557.733 267.44 556.581 268.608C555.445 269.792 554.005 270.384 552.261 270.384C550.517 270.384 549.069 269.792 547.917 268.608C546.781 267.424 546.213 265.928 546.213 264.12ZM548.421 264.12C548.421 265.384 548.789 266.408 549.525 267.192C550.261 267.976 551.173 268.368 552.261 268.368C553.349 268.368 554.261 267.976 554.997 267.192C555.733 266.408 556.101 265.384 556.101 264.12C556.101 262.872 555.733 261.856 554.997 261.072C554.245 260.272 553.333 259.872 552.261 259.872C551.189 259.872 550.277 260.272 549.525 261.072C548.789 261.856 548.421 262.872 548.421 264.12ZM564.187 252.624C564.987 252.624 565.643 252.76 566.155 253.032L565.555 254.976C565.171 254.784 564.739 254.688 564.259 254.688C563.715 254.688 563.267 254.88 562.915 255.264C562.579 255.632 562.411 256.128 562.411 256.752V258.24H565.483V260.256H562.411V270H560.203V260.256H557.995V258.24H560.203V256.536C560.203 255.368 560.571 254.424 561.307 253.704C562.059 252.984 563.019 252.624 564.187 252.624ZM575.128 270.192C574.168 270.192 573.368 269.896 572.728 269.304C572.104 268.712 571.784 267.888 571.768 266.832V260.256H569.704V258.24H571.768V254.64H573.976V258.24H576.856V260.256H573.976V266.112C573.976 266.896 574.128 267.432 574.432 267.72C574.736 267.992 575.08 268.128 575.464 268.128C575.64 268.128 575.808 268.112 575.968 268.08C576.144 268.032 576.304 267.976 576.448 267.912L577.144 269.88C576.568 270.088 575.896 270.192 575.128 270.192ZM577.874 252.816H580.082V258.24L579.986 259.872H580.082C580.418 259.296 580.93 258.816 581.618 258.432C582.322 258.048 583.05 257.856 583.802 257.856C585.242 257.856 586.346 258.272 587.114 259.104C587.898 259.92 588.29 261.088 588.29 262.608V270H586.082V263.04C586.082 260.928 585.146 259.872 583.274 259.872C582.378 259.872 581.618 260.248 580.994 261C580.386 261.736 580.082 262.6 580.082 263.592V270H577.874V252.816ZM594.961 270.384C593.233 270.384 591.809 269.792 590.689 268.608C589.569 267.424 589.009 265.928 589.009 264.12C589.009 262.328 589.553 260.84 590.641 259.656C591.729 258.456 593.121 257.856 594.817 257.856C596.561 257.856 597.945 258.424 598.969 259.56C600.009 260.68 600.529 262.256 600.529 264.288L600.505 264.528H591.265C591.297 265.68 591.681 266.608 592.417 267.312C593.153 268.016 594.033 268.368 595.057 268.368C596.465 268.368 597.569 267.664 598.369 266.256L600.337 267.216C599.809 268.208 599.073 268.984 598.129 269.544C597.201 270.104 596.145 270.384 594.961 270.384ZM591.433 262.704H598.177C598.113 261.888 597.777 261.216 597.169 260.688C596.577 260.144 595.777 259.872 594.769 259.872C593.937 259.872 593.217 260.128 592.609 260.64C592.017 261.152 591.625 261.84 591.433 262.704ZM608.014 270H605.806V252.816H608.014V270ZM612.102 270H609.894V258.24H612.006V259.872H612.102C612.438 259.296 612.95 258.816 613.638 258.432C614.342 258.048 615.038 257.856 615.726 257.856C616.59 257.856 617.35 258.056 618.006 258.456C618.662 258.856 619.142 259.408 619.446 260.112C620.422 258.608 621.774 257.856 623.502 257.856C624.862 257.856 625.91 258.272 626.646 259.104C627.382 259.936 627.75 261.12 627.75 262.656V270H625.542V262.992C625.542 261.888 625.342 261.096 624.942 260.616C624.542 260.12 623.87 259.872 622.926 259.872C622.078 259.872 621.366 260.232 620.79 260.952C620.214 261.672 619.926 262.52 619.926 263.496V270H617.718V262.992C617.718 261.888 617.518 261.096 617.118 260.616C616.718 260.12 616.046 259.872 615.102 259.872C614.254 259.872 613.542 260.232 612.966 260.952C612.39 261.672 612.102 262.52 612.102 263.496V270ZM631.34 270H629.132V258.24H631.244V259.872H631.34C631.676 259.296 632.188 258.816 632.876 258.432C633.58 258.048 634.276 257.856 634.964 257.856C635.828 257.856 636.588 258.056 637.244 258.456C637.9 258.856 638.38 259.408 638.684 260.112C639.66 258.608 641.012 257.856 642.74 257.856C644.1 257.856 645.148 258.272 645.884 259.104C646.62 259.936 646.988 261.12 646.988 262.656V270H644.78V262.992C644.78 261.888 644.58 261.096 644.18 260.616C643.78 260.12 643.108 259.872 642.164 259.872C641.316 259.872 640.604 260.232 640.028 260.952C639.452 261.672 639.164 262.52 639.164 263.496V270H636.956V262.992C636.956 261.888 636.756 261.096 636.356 260.616C635.956 260.12 635.284 259.872 634.34 259.872C633.492 259.872 632.78 260.232 632.204 260.952C631.628 261.672 631.34 262.52 631.34 263.496V270ZM649.86 266.4C649.86 266.976 650.1 267.456 650.58 267.84C651.076 268.224 651.652 268.416 652.308 268.416C653.236 268.416 654.06 268.072 654.78 267.384C655.516 266.696 655.884 265.888 655.884 264.96C655.196 264.416 654.236 264.144 653.004 264.144C652.108 264.144 651.356 264.36 650.748 264.792C650.156 265.224 649.86 265.76 649.86 266.4ZM652.716 257.856C654.348 257.856 655.636 258.296 656.58 259.176C657.524 260.04 657.996 261.232 657.996 262.752V270H655.884V268.368H655.788C654.876 269.712 653.66 270.384 652.14 270.384C650.844 270.384 649.756 270 648.876 269.232C648.012 268.464 647.58 267.504 647.58 266.352C647.58 265.136 648.036 264.168 648.948 263.448C649.876 262.728 651.108 262.368 652.644 262.368C653.956 262.368 655.036 262.608 655.884 263.088V262.584C655.884 261.816 655.58 261.168 654.972 260.64C654.364 260.096 653.652 259.824 652.836 259.824C651.604 259.824 650.628 260.344 649.908 261.384L647.964 260.16C649.036 258.624 650.62 257.856 652.716 257.856ZM664.545 270.384C662.801 270.384 661.353 269.792 660.201 268.608C659.065 267.392 658.497 265.896 658.497 264.12C658.497 262.312 659.065 260.816 660.201 259.632C661.353 258.448 662.801 257.856 664.545 257.856C665.745 257.856 666.793 258.16 667.689 258.768C668.585 259.36 669.257 260.184 669.705 261.24L667.689 262.08C667.065 260.608 665.969 259.872 664.401 259.872C663.393 259.872 662.521 260.28 661.785 261.096C661.065 261.912 660.705 262.92 660.705 264.12C660.705 265.32 661.065 266.328 661.785 267.144C662.521 267.96 663.393 268.368 664.401 268.368C666.017 268.368 667.153 267.632 667.809 266.16L669.777 267C669.345 268.056 668.665 268.888 667.737 269.496C666.825 270.088 665.761 270.384 664.545 270.384ZM680.828 270H678.716V268.368H678.62C678.284 268.944 677.764 269.424 677.06 269.808C676.372 270.192 675.652 270.384 674.9 270.384C673.46 270.384 672.348 269.976 671.564 269.16C670.796 268.328 670.412 267.152 670.412 265.632V258.24H672.62V265.488C672.668 267.408 673.636 268.368 675.524 268.368C676.404 268.368 677.14 268.016 677.732 267.312C678.324 266.592 678.62 265.736 678.62 264.744V258.24H680.828V270ZM684.524 252.816V270H682.316V252.816H684.524ZM687.505 266.4C687.505 266.976 687.745 267.456 688.225 267.84C688.721 268.224 689.297 268.416 689.953 268.416C690.881 268.416 691.705 268.072 692.425 267.384C693.161 266.696 693.529 265.888 693.529 264.96C692.841 264.416 691.881 264.144 690.649 264.144C689.753 264.144 689.001 264.36 688.393 264.792C687.801 265.224 687.505 265.76 687.505 266.4ZM690.361 257.856C691.993 257.856 693.281 258.296 694.225 259.176C695.169 260.04 695.641 261.232 695.641 262.752V270H693.529V268.368H693.433C692.521 269.712 691.305 270.384 689.785 270.384C688.489 270.384 687.401 270 686.521 269.232C685.657 268.464 685.225 267.504 685.225 266.352C685.225 265.136 685.681 264.168 686.593 263.448C687.521 262.728 688.753 262.368 690.289 262.368C691.601 262.368 692.681 262.608 693.529 263.088V262.584C693.529 261.816 693.225 261.168 692.617 260.64C692.009 260.096 691.297 259.824 690.481 259.824C689.249 259.824 688.273 260.344 687.553 261.384L685.609 260.16C686.681 258.624 688.265 257.856 690.361 257.856ZM701.353 270.192C700.393 270.192 699.593 269.896 698.953 269.304C698.329 268.712 698.009 267.888 697.993 266.832V260.256H695.929V258.24H697.993V254.64H700.201V258.24H703.081V260.256H700.201V266.112C700.201 266.896 700.353 267.432 700.657 267.72C700.961 267.992 701.305 268.128 701.689 268.128C701.865 268.128 702.033 268.112 702.193 268.08C702.369 268.032 702.529 267.976 702.673 267.912L703.369 269.88C702.793 270.088 702.121 270.192 701.353 270.192ZM709.144 270.384C707.416 270.384 705.992 269.792 704.872 268.608C703.752 267.424 703.192 265.928 703.192 264.12C703.192 262.328 703.736 260.84 704.824 259.656C705.912 258.456 707.304 257.856 709 257.856C710.744 257.856 712.128 258.424 713.152 259.56C714.192 260.68 714.712 262.256 714.712 264.288L714.688 264.528H705.448C705.48 265.68 705.864 266.608 706.6 267.312C707.336 268.016 708.216 268.368 709.24 268.368C710.648 268.368 711.752 267.664 712.552 266.256L714.52 267.216C713.992 268.208 713.256 268.984 712.312 269.544C711.384 270.104 710.328 270.384 709.144 270.384ZM705.616 262.704H712.36C712.296 261.888 711.96 261.216 711.352 260.688C710.76 260.144 709.96 259.872 708.952 259.872C708.12 259.872 707.4 260.128 706.792 260.64C706.2 261.152 705.808 261.84 705.616 262.704ZM727.608 270.384C725.064 270.384 722.936 269.528 721.224 267.816C719.528 266.104 718.68 263.968 718.68 261.408C718.68 258.848 719.528 256.72 721.224 255.024C722.92 253.296 725.048 252.432 727.608 252.432C730.2 252.432 732.304 253.368 733.92 255.24L732.336 256.776C731.104 255.288 729.528 254.544 727.608 254.544C725.704 254.544 724.112 255.184 722.832 256.464C721.568 257.728 720.936 259.376 720.936 261.408C720.936 263.44 721.568 265.088 722.832 266.352C724.112 267.632 725.704 268.272 727.608 268.272C729.608 268.272 731.344 267.432 732.816 265.752L734.424 267.312C733.608 268.288 732.608 269.048 731.424 269.592C730.24 270.12 728.968 270.384 727.608 270.384ZM734.28 264.12C734.28 262.312 734.848 260.816 735.984 259.632C737.136 258.448 738.584 257.856 740.328 257.856C742.072 257.856 743.512 258.448 744.648 259.632C745.8 260.816 746.376 262.312 746.376 264.12C746.376 265.944 745.8 267.44 744.648 268.608C743.512 269.792 742.072 270.384 740.328 270.384C738.584 270.384 737.136 269.792 735.984 268.608C734.848 267.424 734.28 265.928 734.28 264.12ZM736.488 264.12C736.488 265.384 736.856 266.408 737.592 267.192C738.328 267.976 739.24 268.368 740.328 268.368C741.416 268.368 742.328 267.976 743.064 267.192C743.8 266.408 744.168 265.384 744.168 264.12C744.168 262.872 743.8 261.856 743.064 261.072C742.312 260.272 741.4 259.872 740.328 259.872C739.256 259.872 738.344 260.272 737.592 261.072C736.856 261.856 736.488 262.872 736.488 264.12ZM746.947 258.24H749.059V259.872H749.155C749.491 259.296 750.003 258.816 750.691 258.432C751.395 258.048 752.123 257.856 752.875 257.856C754.315 257.856 755.419 258.272 756.187 259.104C756.971 259.92 757.363 261.088 757.363 262.608V270H755.155V262.752C755.107 260.832 754.139 259.872 752.251 259.872C751.371 259.872 750.635 260.232 750.043 260.952C749.451 261.656 749.155 262.504 749.155 263.496V270H746.947V258.24ZM764.131 270.384C762.387 270.384 760.939 269.792 759.787 268.608C758.651 267.392 758.083 265.896 758.083 264.12C758.083 262.312 758.651 260.816 759.787 259.632C760.939 258.448 762.387 257.856 764.131 257.856C765.331 257.856 766.379 258.16 767.275 258.768C768.171 259.36 768.843 260.184 769.291 261.24L767.275 262.08C766.651 260.608 765.555 259.872 763.987 259.872C762.979 259.872 762.107 260.28 761.371 261.096C760.651 261.912 760.291 262.92 760.291 264.12C760.291 265.32 760.651 266.328 761.371 267.144C762.107 267.96 762.979 268.368 763.987 268.368C765.603 268.368 766.739 267.632 767.395 266.16L769.363 267C768.931 268.056 768.251 268.888 767.323 269.496C766.411 270.088 765.347 270.384 764.131 270.384ZM775.257 270.384C773.529 270.384 772.105 269.792 770.985 268.608C769.865 267.424 769.305 265.928 769.305 264.12C769.305 262.328 769.849 260.84 770.937 259.656C772.025 258.456 773.417 257.856 775.113 257.856C776.857 257.856 778.241 258.424 779.265 259.56C780.305 260.68 780.825 262.256 780.825 264.288L780.801 264.528H771.561C771.593 265.68 771.977 266.608 772.713 267.312C773.449 268.016 774.329 268.368 775.353 268.368C776.761 268.368 777.865 267.664 778.665 266.256L780.633 267.216C780.105 268.208 779.369 268.984 778.425 269.544C777.497 270.104 776.441 270.384 775.257 270.384ZM771.729 262.704H778.473C778.409 261.888 778.073 261.216 777.465 260.688C776.873 260.144 776.073 259.872 775.065 259.872C774.233 259.872 773.513 260.128 772.905 260.64C772.313 261.152 771.921 261.84 771.729 262.704ZM787.404 268.368C788.46 268.368 789.348 267.968 790.068 267.168C790.788 266.384 791.148 265.368 791.148 264.12C791.148 262.888 790.788 261.872 790.068 261.072C789.348 260.272 788.46 259.872 787.404 259.872C786.332 259.872 785.436 260.272 784.716 261.072C784.012 261.872 783.66 262.888 783.66 264.12C783.66 265.368 784.012 266.392 784.716 267.192C785.436 267.976 786.332 268.368 787.404 268.368ZM787.764 270.384C786.9 270.384 786.108 270.2 785.388 269.832C784.684 269.464 784.14 268.976 783.756 268.368H783.66L783.756 270V275.184H781.548V258.24H783.66V259.872H783.756C784.14 259.264 784.684 258.776 785.388 258.408C786.108 258.04 786.9 257.856 787.764 257.856C789.316 257.856 790.628 258.464 791.7 259.68C792.804 260.912 793.356 262.392 793.356 264.12C793.356 265.864 792.804 267.344 791.7 268.56C790.628 269.776 789.316 270.384 787.764 270.384ZM798.366 270.192C797.406 270.192 796.606 269.896 795.966 269.304C795.342 268.712 795.022 267.888 795.006 266.832V260.256H792.942V258.24H795.006V254.64H797.214V258.24H800.094V260.256H797.214V266.112C797.214 266.896 797.366 267.432 797.67 267.72C797.974 267.992 798.318 268.128 798.702 268.128C798.878 268.128 799.046 268.112 799.206 268.08C799.382 268.032 799.542 267.976 799.686 267.912L800.382 269.88C799.806 270.088 799.134 270.192 798.366 270.192ZM803.967 254.184C803.967 254.616 803.815 254.984 803.511 255.288C803.207 255.592 802.839 255.744 802.407 255.744C801.975 255.744 801.607 255.592 801.303 255.288C800.999 254.984 800.847 254.616 800.847 254.184C800.847 253.752 800.999 253.384 801.303 253.08C801.607 252.776 801.975 252.624 802.407 252.624C802.839 252.624 803.207 252.776 803.511 253.08C803.815 253.384 803.967 253.752 803.967 254.184ZM803.511 258.24V270H801.303V258.24H803.511ZM804.395 264.12C804.395 262.312 804.963 260.816 806.099 259.632C807.251 258.448 808.699 257.856 810.443 257.856C812.187 257.856 813.627 258.448 814.763 259.632C815.915 260.816 816.491 262.312 816.491 264.12C816.491 265.944 815.915 267.44 814.763 268.608C813.627 269.792 812.187 270.384 810.443 270.384C808.699 270.384 807.251 269.792 806.099 268.608C804.963 267.424 804.395 265.928 804.395 264.12ZM806.603 264.12C806.603 265.384 806.971 266.408 807.707 267.192C808.443 267.976 809.355 268.368 810.443 268.368C811.531 268.368 812.443 267.976 813.179 267.192C813.915 266.408 814.283 265.384 814.283 264.12C814.283 262.872 813.915 261.856 813.179 261.072C812.427 260.272 811.515 259.872 810.443 259.872C809.371 259.872 808.459 260.272 807.707 261.072C806.971 261.856 806.603 262.872 806.603 264.12ZM817.063 258.24H819.175V259.872H819.271C819.607 259.296 820.119 258.816 820.807 258.432C821.511 258.048 822.239 257.856 822.991 257.856C824.431 257.856 825.535 258.272 826.303 259.104C827.087 259.92 827.479 261.088 827.479 262.608V270H825.271V262.752C825.223 260.832 824.255 259.872 822.367 259.872C821.487 259.872 820.751 260.232 820.159 260.952C819.567 261.656 819.271 262.504 819.271 263.496V270H817.063V258.24Z" fill="#5F6368"/>
<path opacity="0.9" d="M535.966 122.107C535.966 133.434 533.743 144.651 529.424 155.116C525.105 165.581 518.775 175.09 510.795 183.099C502.816 191.109 493.342 197.462 482.916 201.797C472.49 206.132 461.315 208.363 450.029 208.363C438.744 208.363 427.569 206.132 417.143 201.797C406.717 197.462 397.243 191.109 389.263 183.099C381.283 175.09 374.953 165.581 370.635 155.116C366.316 144.651 364.093 133.434 364.093 122.107L450.029 122.107L535.966 122.107Z" fill="url(#paint0_linear_6124_27)"/>
<path opacity="0.9" d="M450.253 208.044C438.925 208.073 427.703 205.88 417.227 201.588C406.751 197.297 397.226 190.991 389.196 183.032C381.165 175.073 374.787 165.616 370.426 155.201C366.064 144.786 363.804 133.617 363.774 122.332C363.745 111.047 365.947 99.866 370.255 89.4285C374.563 78.991 380.892 69.501 388.881 61.5004C396.869 53.4997 406.362 47.1451 416.815 42.7992C427.269 38.4534 438.48 36.2015 449.807 36.1722L450.03 122.108L450.253 208.044Z" fill="#0F9B57"/>
<path opacity="0.9" d="M86.7006 208.682C75.3734 208.712 64.1514 206.518 53.6752 202.226C43.199 197.935 33.6739 191.629 25.6436 183.67C17.6134 175.711 11.2353 166.254 6.87355 155.839C2.51178 145.424 0.25174 134.255 0.222476 122.97C0.193212 111.685 2.39529 100.504 6.70299 90.0667C11.0107 79.6292 17.3396 70.1392 25.3285 62.1386C33.3174 54.1379 42.8097 47.7832 53.2634 43.4374C63.7172 39.0916 74.9277 36.8397 86.2549 36.8103L86.4778 122.746L86.7006 208.682Z" fill="#E24133"/>
<path opacity="0.9" d="M172.415 122.746C172.415 134.074 170.192 145.29 165.873 155.755C161.555 166.22 155.225 175.729 147.245 183.738C139.265 191.748 129.791 198.101 119.365 202.436C108.939 206.771 97.7639 209.002 86.4786 209.002C75.1933 209.002 64.0186 206.771 53.5923 202.436C43.166 198.101 33.6925 191.748 25.7126 183.738C17.7327 175.729 11.4027 166.22 7.08398 155.755C2.76528 145.29 0.542479 134.074 0.54248 122.746L86.4786 122.746L172.415 122.746Z" fill="url(#paint1_linear_6124_27)"/>
<path opacity="0.9" d="M901.669 184.483C889.65 196.546 874.338 204.762 857.668 208.09C840.998 211.418 823.719 209.71 808.016 203.181C792.313 196.653 778.892 185.597 769.449 171.413C760.007 157.228 754.966 140.551 754.966 123.491C754.966 106.432 760.006 89.7551 769.449 75.5704C778.892 61.3857 792.313 50.3301 808.016 43.8017C823.719 37.2732 840.998 35.565 857.668 38.8932C874.338 42.2214 889.65 50.4365 901.669 62.4995L840.903 123.491L901.669 184.483Z" fill="url(#paint2_angular_6124_27)"/>
<path opacity="0.9" d="M268.361 36.4953C315.999 36.4926 354.619 74.9654 354.622 122.427C354.624 169.888 316.009 208.365 268.371 208.368C244.677 208.369 208.302 208.363 182.106 208.363C182.106 191.751 182.112 146.291 182.11 122.436C182.108 74.975 220.724 36.4979 268.361 36.4953Z" fill="#4183F1"/>
<rect opacity="0.9" x="182.105" y="36.4907" width="85.6167" height="171.872" fill="url(#paint3_linear_6124_27)"/>
<ellipse cx="658.166" cy="122.533" rx="85.9362" ry="86.5751" transform="rotate(-50.2238 658.166 122.533)" fill="#E7A81D"/>
<path opacity="0.9" d="M712.949 56.2068C704.211 48.9329 694.137 43.4386 683.301 40.0375C672.465 36.6364 661.08 35.3952 649.796 36.3848C638.512 37.3743 627.55 40.5752 617.536 45.8047C607.521 51.0342 598.651 58.1899 591.43 66.8632C584.21 75.5365 578.782 85.5576 575.455 96.3543C572.128 107.151 570.968 118.512 572.041 129.788C573.114 141.065 576.399 152.036 581.709 162.075C587.019 172.114 594.249 181.025 602.986 188.299L657.968 122.253L712.949 56.2068Z" fill="url(#paint4_linear_6124_27)"/>
<defs>
<linearGradient id="paint0_linear_6124_27" x1="536.063" y1="122.108" x2="364.19" y2="122.108" gradientUnits="userSpaceOnUse">
<stop stop-color="#0F9B57"/>
<stop offset="1" stop-color="#05351E"/>
</linearGradient>
<linearGradient id="paint1_linear_6124_27" x1="172.512" y1="122.746" x2="0.639505" y2="122.746" gradientUnits="userSpaceOnUse">
<stop stop-color="#E24133"/>
<stop offset="1" stop-color="#7C241C"/>
</linearGradient>
<radialGradient id="paint2_angular_6124_27" cx="0" cy="0" r="1" gradientUnits="userSpaceOnUse" gradientTransform="translate(841 123.491) rotate(-44.9016) scale(91.8708 91.5305)">
<stop stop-color="#994056"/>
<stop offset="1" stop-color="#FF6A90"/>
</radialGradient>
<linearGradient id="paint3_linear_6124_27" x1="224.914" y1="36.4907" x2="224.914" y2="208.363" gradientUnits="userSpaceOnUse">
<stop offset="0.0001" stop-color="#4184F3"/>
<stop offset="0.9998" stop-color="#161D47"/>
</linearGradient>
<linearGradient id="paint4_linear_6124_27" x1="712.949" y1="56.2068" x2="602.986" y2="188.299" gradientUnits="userSpaceOnUse">
<stop stop-color="#E8B139"/>
<stop offset="1" stop-color="#A38636"/>
</linearGradient>
</defs>
</svg>
